<?xml version="1.0" standalone="no"?><!DOCTYPE svg PUBLIC "-//W3C//DTD SVG 1.1//EN" "http://www.w3.org/Graphics/SVG/1.1/DTD/svg11.dtd"><svg t="1628151466385" class="icon" viewBox="0 0 1024 1024" version="1.1" xmlns="http://www.w3.org/2000/svg" p-id="2008" xmlns:xlink="http://www.w3.org/1999/xlink" width="200" height="200"><defs><style type="text/css"></style></defs><path d="M512 842.666667a388.48 388.48 0 0 1-143.146667-26.88 32 32 0 1 1 23.466667-59.52 330.24 330.24 0 0 0 119.68 21.333333c173.013333 0 313.813333-133.973333 313.813333-298.666667S685.013333 181.333333 512 181.333333s-313.813333 133.973333-313.813333 298.666667a287.36 287.36 0 0 0 42.666666 149.333333 32 32 0 0 1-54.826666 34.133334 351.36 351.36 0 0 1-51.84-183.466667c0-199.893333 169.386667-362.666667 377.813333-362.666667s377.813333 162.773333 377.813333 362.666667-169.386667 362.666667-377.813333 362.666667z" fill="#13227a" p-id="2009"></path><path d="M213.333333 906.666667a31.786667 31.786667 0 0 1-16.426666-4.48A32.426667 32.426667 0 0 1 181.333333 874.666667V646.613333a32 32 0 0 1 64 0v174.933334l120.32-64a32 32 0 0 1 29.866667 56.746666l-167.253333 88.746667a33.493333 33.493333 0 0 1-14.933334 3.626667z" fill="#13227a" p-id="2010"></path><path d="M512 454.826667m-42.666667 0a42.666667 42.666667 0 1 0 85.333334 0 42.666667 42.666667 0 1 0-85.333334 0Z" fill="#13227a" p-id="2011"></path><path d="M353.066667 454.826667m-42.666667 0a42.666667 42.666667 0 1 0 85.333333 0 42.666667 42.666667 0 1 0-85.333333 0Z" fill="#13227a" p-id="2012"></path><path d="M673.92 454.826667m-42.666667 0a42.666667 42.666667 0 1 0 85.333334 0 42.666667 42.666667 0 1 0-85.333334 0Z" fill="#13227a" p-id="2013"></path><path d="M391.466667 755.84h-21.76l-3.2 1.28a33.493333 33.493333 0 0 0-15.786667 17.066667 32.213333 32.213333 0 0 0 18.133333 42.666666l14.506667 4.906667 12.16-6.4a32.213333 32.213333 0 0 0-4.053333-58.453333zM229.973333 673.92a31.36 31.36 0 0 0 14.933334-30.72v-1.706667l-1.28-4.906666v-1.066667a54.613333 54.613333 0 0 0-2.346667-5.12 32 32 0 0 0-59.52 16.213333v8.746667l4.693333 8.106667a31.786667 31.786667 0 0 0 43.52 10.453333z" fill="#13227a" p-id="2014"></path></svg>