<?xml version="1.0" standalone="no"?><!DOCTYPE svg PUBLIC "-//W3C//DTD SVG 1.1//EN" "http://www.w3.org/Graphics/SVG/1.1/DTD/svg11.dtd"><svg t="1628061927206" class="icon" viewBox="0 0 1024 1024" version="1.1" xmlns="http://www.w3.org/2000/svg" p-id="2739" width="200" height="200" xmlns:xlink="http://www.w3.org/1999/xlink"><defs><style type="text/css"></style></defs><path d="M140.5 863.7S23.9 722.1 182.2 580.4c0 0-50 75-8.3 133.3 0 0 41.7 33.3 50-75s-25-83.3 8.3-183.3 158.3-216.6 216.6-233.3c0 0-100 166.6 0 258.3 0 0 116.6 33.3 58.3-191.6 0 0-58.3-150 116.6-224.9 0 0-58.3 58.3-16.7 158.3 0 0 75 141.6 91.6 166.6 0 0 41.7 75 8.3 141.6 0 0-16.7 83.3 33.3 91.6 0 0 41.7 8.3 33.3-58.3 0 0-33.3-133.3 75-199.9 0 0-25 41.7-8.3 91.6 0 0 66.6 133.3 75 183.3 0 0 41.7 158.3-58.3 266.6 0 0-58.3 62.5-216.6 54.2h-292c-42.7 0-84.6-10.9-121.8-31.7-31.2-17.5-66.2-40.3-86-64.1z" fill="#d4237a" p-id="2740"></path></svg>